<mxfile host="app.diagrams.net" modified="2022-11-07T13:50:47.257Z" agent="5.0 (Windows NT 10.0; Win64; x64) AppleWebKit/537.36 (KHTML, like Gecko) Chrome/107.0.0.0 Safari/537.36 Edg/107.0.1418.26" etag="G0r17ClezQ8nWz4ILgQw" version="20.5.3" type="github">
  <diagram id="tumH4LlLp4Bfs1no08mW" name="第 1 页">
    <mxGraphModel dx="1767" dy="801" grid="0" gridSize="10" guides="0" tooltips="1" connect="1" arrows="1" fold="1" page="0" pageScale="1" pageWidth="827" pageHeight="1169" math="0" shadow="0">
      <root>
        <mxCell id="0" />
        <mxCell id="1" parent="0" />
        <mxCell id="ndDlktLv1oMTziJurYdK-1" value="" style="edgeStyle=orthogonalEdgeStyle;rounded=0;orthogonalLoop=1;jettySize=auto;html=1;shadow=0;sketch=0;curved=1;" edge="1" parent="1" source="ndDlktLv1oMTziJurYdK-2" target="ndDlktLv1oMTziJurYdK-4">
          <mxGeometry relative="1" as="geometry" />
        </mxCell>
        <mxCell id="ndDlktLv1oMTziJurYdK-2" value="size:数组长度" style="rounded=0;whiteSpace=wrap;html=1;shadow=0;sketch=0;" vertex="1" parent="1">
          <mxGeometry x="275" y="120" width="200" height="40" as="geometry" />
        </mxCell>
        <mxCell id="ndDlktLv1oMTziJurYdK-3" style="edgeStyle=orthogonalEdgeStyle;rounded=0;orthogonalLoop=1;jettySize=auto;html=1;exitX=0.5;exitY=1;exitDx=0;exitDy=0;entryX=0.5;entryY=0;entryDx=0;entryDy=0;shadow=0;sketch=0;curved=1;" edge="1" parent="1" source="ndDlktLv1oMTziJurYdK-4" target="ndDlktLv1oMTziJurYdK-7">
          <mxGeometry relative="1" as="geometry" />
        </mxCell>
        <mxCell id="ndDlktLv1oMTziJurYdK-4" value="list存放结果" style="whiteSpace=wrap;html=1;rounded=0;shadow=0;sketch=0;" vertex="1" parent="1">
          <mxGeometry x="315" y="190" width="120" height="30" as="geometry" />
        </mxCell>
        <mxCell id="ndDlktLv1oMTziJurYdK-5" value="" style="edgeStyle=orthogonalEdgeStyle;rounded=0;orthogonalLoop=1;jettySize=auto;html=1;shadow=1;sketch=0;curved=1;" edge="1" parent="1" source="ndDlktLv1oMTziJurYdK-7" target="ndDlktLv1oMTziJurYdK-11">
          <mxGeometry relative="1" as="geometry" />
        </mxCell>
        <mxCell id="ndDlktLv1oMTziJurYdK-6" value="" style="edgeStyle=orthogonalEdgeStyle;rounded=0;orthogonalLoop=1;jettySize=auto;html=1;shadow=0;sketch=0;curved=1;" edge="1" parent="1" source="ndDlktLv1oMTziJurYdK-7" target="ndDlktLv1oMTziJurYdK-39">
          <mxGeometry relative="1" as="geometry" />
        </mxCell>
        <mxCell id="ndDlktLv1oMTziJurYdK-7" value="n小于2或者数组的长度小于n" style="rhombus;whiteSpace=wrap;html=1;rounded=0;sketch=0;" vertex="1" parent="1">
          <mxGeometry x="210" y="280" width="330" height="60" as="geometry" />
        </mxCell>
        <mxCell id="ndDlktLv1oMTziJurYdK-8" value="是" style="text;html=1;align=center;verticalAlign=middle;resizable=0;points=[];autosize=1;strokeColor=none;fillColor=none;shadow=1;rounded=0;sketch=0;" vertex="1" parent="1">
          <mxGeometry x="365" y="235" width="40" height="30" as="geometry" />
        </mxCell>
        <mxCell id="ndDlktLv1oMTziJurYdK-9" value="" style="edgeStyle=orthogonalEdgeStyle;rounded=0;orthogonalLoop=1;jettySize=auto;html=1;shadow=0;sketch=0;curved=1;" edge="1" parent="1" source="ndDlktLv1oMTziJurYdK-11" target="ndDlktLv1oMTziJurYdK-15">
          <mxGeometry relative="1" as="geometry" />
        </mxCell>
        <mxCell id="ndDlktLv1oMTziJurYdK-10" style="edgeStyle=orthogonalEdgeStyle;rounded=0;orthogonalLoop=1;jettySize=auto;html=1;exitX=0;exitY=0.5;exitDx=0;exitDy=0;entryX=1;entryY=0.5;entryDx=0;entryDy=0;shadow=0;sketch=0;curved=1;" edge="1" parent="1" source="ndDlktLv1oMTziJurYdK-11" target="ndDlktLv1oMTziJurYdK-44">
          <mxGeometry relative="1" as="geometry" />
        </mxCell>
        <mxCell id="ndDlktLv1oMTziJurYdK-11" value="n=2,求的是两数之和" style="rhombus;whiteSpace=wrap;html=1;rounded=0;sketch=0;" vertex="1" parent="1">
          <mxGeometry x="210" y="380" width="330" height="60" as="geometry" />
        </mxCell>
        <mxCell id="ndDlktLv1oMTziJurYdK-12" style="edgeStyle=orthogonalEdgeStyle;rounded=0;orthogonalLoop=1;jettySize=auto;html=1;exitX=0.5;exitY=1;exitDx=0;exitDy=0;entryX=0.5;entryY=0;entryDx=0;entryDy=0;shadow=0;sketch=0;curved=1;" edge="1" parent="1" source="ndDlktLv1oMTziJurYdK-13" target="ndDlktLv1oMTziJurYdK-2">
          <mxGeometry relative="1" as="geometry" />
        </mxCell>
        <mxCell id="ndDlktLv1oMTziJurYdK-13" value="数组排好序" style="whiteSpace=wrap;html=1;rounded=0;shadow=0;sketch=0;" vertex="1" parent="1">
          <mxGeometry x="315" y="40" width="120" height="30" as="geometry" />
        </mxCell>
        <mxCell id="ndDlktLv1oMTziJurYdK-14" style="edgeStyle=orthogonalEdgeStyle;rounded=0;orthogonalLoop=1;jettySize=auto;html=1;exitX=0.5;exitY=1;exitDx=0;exitDy=0;entryX=0.5;entryY=0;entryDx=0;entryDy=0;shadow=0;sketch=0;curved=1;" edge="1" parent="1" source="ndDlktLv1oMTziJurYdK-15" target="ndDlktLv1oMTziJurYdK-18">
          <mxGeometry relative="1" as="geometry" />
        </mxCell>
        <mxCell id="ndDlktLv1oMTziJurYdK-15" value="设置左右指针" style="whiteSpace=wrap;html=1;rounded=0;sketch=0;" vertex="1" parent="1">
          <mxGeometry x="316.25" y="470" width="117.5" height="40" as="geometry" />
        </mxCell>
        <mxCell id="ndDlktLv1oMTziJurYdK-16" value="" style="edgeStyle=orthogonalEdgeStyle;rounded=0;orthogonalLoop=1;jettySize=auto;html=1;shadow=0;sketch=0;curved=1;" edge="1" parent="1" source="ndDlktLv1oMTziJurYdK-18" target="ndDlktLv1oMTziJurYdK-20">
          <mxGeometry relative="1" as="geometry" />
        </mxCell>
        <mxCell id="ndDlktLv1oMTziJurYdK-17" style="edgeStyle=orthogonalEdgeStyle;rounded=0;orthogonalLoop=1;jettySize=auto;html=1;exitX=0;exitY=0.5;exitDx=0;exitDy=0;entryX=0;entryY=0.5;entryDx=0;entryDy=0;shadow=0;sketch=0;curved=1;" edge="1" parent="1" source="ndDlktLv1oMTziJurYdK-18" target="ndDlktLv1oMTziJurYdK-53">
          <mxGeometry relative="1" as="geometry" />
        </mxCell>
        <mxCell id="ndDlktLv1oMTziJurYdK-18" value="left&amp;lt;right" style="rhombus;whiteSpace=wrap;html=1;rounded=0;shadow=0;sketch=0;" vertex="1" parent="1">
          <mxGeometry x="267" y="545" width="216" height="80" as="geometry" />
        </mxCell>
        <mxCell id="ndDlktLv1oMTziJurYdK-19" style="edgeStyle=orthogonalEdgeStyle;rounded=0;orthogonalLoop=1;jettySize=auto;html=1;exitX=0.5;exitY=1;exitDx=0;exitDy=0;entryX=0.5;entryY=0;entryDx=0;entryDy=0;shadow=0;sketch=0;curved=1;" edge="1" parent="1" source="ndDlktLv1oMTziJurYdK-20" target="ndDlktLv1oMTziJurYdK-23">
          <mxGeometry relative="1" as="geometry" />
        </mxCell>
        <mxCell id="ndDlktLv1oMTziJurYdK-20" value="获取左指针的数&lt;br&gt;获取右指针的数&lt;br&gt;sum:左右指针之和" style="whiteSpace=wrap;html=1;rounded=0;shadow=0;sketch=0;" vertex="1" parent="1">
          <mxGeometry x="315" y="658" width="120" height="60" as="geometry" />
        </mxCell>
        <mxCell id="ndDlktLv1oMTziJurYdK-21" value="" style="edgeStyle=orthogonalEdgeStyle;rounded=0;orthogonalLoop=1;jettySize=auto;html=1;shadow=0;sketch=0;curved=1;" edge="1" parent="1" source="ndDlktLv1oMTziJurYdK-23" target="ndDlktLv1oMTziJurYdK-25">
          <mxGeometry relative="1" as="geometry" />
        </mxCell>
        <mxCell id="ndDlktLv1oMTziJurYdK-22" style="edgeStyle=orthogonalEdgeStyle;rounded=0;orthogonalLoop=1;jettySize=auto;html=1;exitX=0;exitY=0.5;exitDx=0;exitDy=0;entryX=1;entryY=0.5;entryDx=0;entryDy=0;shadow=0;sketch=0;curved=1;" edge="1" parent="1" source="ndDlktLv1oMTziJurYdK-23" target="ndDlktLv1oMTziJurYdK-29">
          <mxGeometry relative="1" as="geometry" />
        </mxCell>
        <mxCell id="ndDlktLv1oMTziJurYdK-23" value="和小于目标值" style="rhombus;whiteSpace=wrap;html=1;shadow=0;rounded=0;sketch=0;" vertex="1" parent="1">
          <mxGeometry x="292.5" y="900" width="165" height="80" as="geometry" />
        </mxCell>
        <mxCell id="ndDlktLv1oMTziJurYdK-24" style="edgeStyle=orthogonalEdgeStyle;rounded=0;orthogonalLoop=1;jettySize=auto;html=1;exitX=0.5;exitY=1;exitDx=0;exitDy=0;entryX=1;entryY=0.5;entryDx=0;entryDy=0;shadow=0;sketch=0;curved=1;" edge="1" parent="1" source="ndDlktLv1oMTziJurYdK-25" target="ndDlktLv1oMTziJurYdK-18">
          <mxGeometry relative="1" as="geometry">
            <Array as="points">
              <mxPoint x="375" y="1040" />
              <mxPoint x="503" y="1040" />
              <mxPoint x="503" y="585" />
            </Array>
          </mxGeometry>
        </mxCell>
        <mxCell id="ndDlktLv1oMTziJurYdK-25" value="左指针右移&lt;br&gt;去重" style="whiteSpace=wrap;html=1;shadow=0;rounded=0;sketch=0;" vertex="1" parent="1">
          <mxGeometry x="316" y="1020" width="118" height="40" as="geometry" />
        </mxCell>
        <mxCell id="ndDlktLv1oMTziJurYdK-26" value="是" style="text;html=1;align=center;verticalAlign=middle;resizable=0;points=[];autosize=1;strokeColor=none;fillColor=none;rounded=0;sketch=0;" vertex="1" parent="1">
          <mxGeometry x="370" y="975" width="40" height="30" as="geometry" />
        </mxCell>
        <mxCell id="ndDlktLv1oMTziJurYdK-27" value="" style="edgeStyle=orthogonalEdgeStyle;rounded=0;orthogonalLoop=1;jettySize=auto;html=1;shadow=0;sketch=0;curved=1;" edge="1" parent="1" source="ndDlktLv1oMTziJurYdK-29" target="ndDlktLv1oMTziJurYdK-32">
          <mxGeometry relative="1" as="geometry" />
        </mxCell>
        <mxCell id="ndDlktLv1oMTziJurYdK-28" value="" style="edgeStyle=orthogonalEdgeStyle;rounded=0;orthogonalLoop=1;jettySize=auto;html=1;shadow=0;sketch=0;curved=1;" edge="1" parent="1" source="ndDlktLv1oMTziJurYdK-29" target="ndDlktLv1oMTziJurYdK-35">
          <mxGeometry relative="1" as="geometry" />
        </mxCell>
        <mxCell id="ndDlktLv1oMTziJurYdK-29" value="和大于目标值" style="rhombus;whiteSpace=wrap;html=1;shadow=0;rounded=0;sketch=0;" vertex="1" parent="1">
          <mxGeometry x="90" y="900" width="165" height="80" as="geometry" />
        </mxCell>
        <mxCell id="ndDlktLv1oMTziJurYdK-30" value="否" style="text;html=1;align=center;verticalAlign=middle;resizable=0;points=[];autosize=1;strokeColor=none;fillColor=none;rounded=0;sketch=0;" vertex="1" parent="1">
          <mxGeometry x="252.5" y="915" width="40" height="30" as="geometry" />
        </mxCell>
        <mxCell id="ndDlktLv1oMTziJurYdK-31" style="edgeStyle=orthogonalEdgeStyle;rounded=0;orthogonalLoop=1;jettySize=auto;html=1;exitX=0.5;exitY=1;exitDx=0;exitDy=0;entryX=1;entryY=0.5;entryDx=0;entryDy=0;shadow=0;sketch=0;curved=1;" edge="1" parent="1" source="ndDlktLv1oMTziJurYdK-32" target="ndDlktLv1oMTziJurYdK-18">
          <mxGeometry relative="1" as="geometry">
            <Array as="points">
              <mxPoint x="173" y="1070" />
              <mxPoint x="530" y="1070" />
              <mxPoint x="530" y="585" />
            </Array>
          </mxGeometry>
        </mxCell>
        <mxCell id="ndDlktLv1oMTziJurYdK-32" value="右指针左移&lt;br&gt;去重" style="whiteSpace=wrap;html=1;shadow=0;rounded=0;sketch=0;" vertex="1" parent="1">
          <mxGeometry x="113.75" y="1020" width="117.5" height="37" as="geometry" />
        </mxCell>
        <mxCell id="ndDlktLv1oMTziJurYdK-33" value="是" style="text;html=1;align=center;verticalAlign=middle;resizable=0;points=[];autosize=1;strokeColor=none;fillColor=none;rounded=0;sketch=0;" vertex="1" parent="1">
          <mxGeometry x="160" y="975" width="40" height="30" as="geometry" />
        </mxCell>
        <mxCell id="ndDlktLv1oMTziJurYdK-34" style="edgeStyle=orthogonalEdgeStyle;rounded=0;orthogonalLoop=1;jettySize=auto;html=1;exitX=0.5;exitY=1;exitDx=0;exitDy=0;entryX=1;entryY=0.5;entryDx=0;entryDy=0;shadow=0;sketch=0;curved=1;" edge="1" parent="1" source="ndDlktLv1oMTziJurYdK-35" target="ndDlktLv1oMTziJurYdK-18">
          <mxGeometry relative="1" as="geometry">
            <Array as="points">
              <mxPoint x="-111" y="1100" />
              <mxPoint x="550" y="1100" />
              <mxPoint x="550" y="585" />
            </Array>
          </mxGeometry>
        </mxCell>
        <mxCell id="ndDlktLv1oMTziJurYdK-35" value="在list中加入一组元素&lt;br&gt;对左右指针去重" style="whiteSpace=wrap;html=1;shadow=0;rounded=0;sketch=0;" vertex="1" parent="1">
          <mxGeometry x="-210" y="910" width="197.5" height="60" as="geometry" />
        </mxCell>
        <mxCell id="ndDlktLv1oMTziJurYdK-36" value="否&amp;nbsp;" style="text;html=1;align=center;verticalAlign=middle;resizable=0;points=[];autosize=1;strokeColor=none;fillColor=none;rounded=0;sketch=0;" vertex="1" parent="1">
          <mxGeometry x="40" y="915" width="40" height="30" as="geometry" />
        </mxCell>
        <mxCell id="ndDlktLv1oMTziJurYdK-37" value="是" style="text;html=1;align=center;verticalAlign=middle;resizable=0;points=[];autosize=1;strokeColor=none;fillColor=none;rounded=0;sketch=0;" vertex="1" parent="1">
          <mxGeometry x="370" y="435" width="40" height="30" as="geometry" />
        </mxCell>
        <mxCell id="ndDlktLv1oMTziJurYdK-38" style="edgeStyle=orthogonalEdgeStyle;rounded=0;orthogonalLoop=1;jettySize=auto;html=1;exitX=0.5;exitY=1;exitDx=0;exitDy=0;entryX=0.5;entryY=0;entryDx=0;entryDy=0;shadow=0;sketch=0;curved=1;" edge="1" parent="1" source="ndDlktLv1oMTziJurYdK-39" target="ndDlktLv1oMTziJurYdK-53">
          <mxGeometry relative="1" as="geometry" />
        </mxCell>
        <mxCell id="ndDlktLv1oMTziJurYdK-39" value="返回list" style="whiteSpace=wrap;html=1;rounded=0;sketch=0;" vertex="1" parent="1">
          <mxGeometry x="750" y="565" width="120" height="60" as="geometry" />
        </mxCell>
        <mxCell id="ndDlktLv1oMTziJurYdK-40" value="否" style="text;html=1;align=center;verticalAlign=middle;resizable=0;points=[];autosize=1;strokeColor=none;fillColor=none;rounded=0;sketch=0;" vertex="1" parent="1">
          <mxGeometry x="370" y="335" width="40" height="30" as="geometry" />
        </mxCell>
        <mxCell id="ndDlktLv1oMTziJurYdK-41" value="是" style="text;html=1;align=center;verticalAlign=middle;resizable=0;points=[];autosize=1;strokeColor=none;fillColor=none;rounded=0;sketch=0;" vertex="1" parent="1">
          <mxGeometry x="570" y="275" width="40" height="30" as="geometry" />
        </mxCell>
        <mxCell id="ndDlktLv1oMTziJurYdK-42" value="" style="edgeStyle=orthogonalEdgeStyle;rounded=0;orthogonalLoop=1;jettySize=auto;html=1;shadow=0;sketch=0;curved=1;" edge="1" parent="1" source="ndDlktLv1oMTziJurYdK-44" target="ndDlktLv1oMTziJurYdK-46">
          <mxGeometry relative="1" as="geometry" />
        </mxCell>
        <mxCell id="ndDlktLv1oMTziJurYdK-43" style="edgeStyle=orthogonalEdgeStyle;rounded=0;orthogonalLoop=1;jettySize=auto;html=1;exitX=0;exitY=0.5;exitDx=0;exitDy=0;entryX=0.5;entryY=1;entryDx=0;entryDy=0;shadow=0;sketch=0;curved=1;" edge="1" parent="1" source="ndDlktLv1oMTziJurYdK-44" target="ndDlktLv1oMTziJurYdK-53">
          <mxGeometry relative="1" as="geometry" />
        </mxCell>
        <mxCell id="ndDlktLv1oMTziJurYdK-44" value="i&amp;lt;size" style="rhombus;whiteSpace=wrap;html=1;rounded=0;shadow=0;sketch=0;" vertex="1" parent="1">
          <mxGeometry x="-180" y="380" width="330" height="60" as="geometry" />
        </mxCell>
        <mxCell id="ndDlktLv1oMTziJurYdK-45" value="" style="edgeStyle=orthogonalEdgeStyle;rounded=0;orthogonalLoop=1;jettySize=auto;html=1;shadow=0;sketch=0;curved=1;" edge="1" parent="1" source="ndDlktLv1oMTziJurYdK-46" target="ndDlktLv1oMTziJurYdK-50">
          <mxGeometry relative="1" as="geometry" />
        </mxCell>
        <mxCell id="ndDlktLv1oMTziJurYdK-46" value="得到在i位置后面的n-1个数和等于target-nums[i]的集合" style="whiteSpace=wrap;html=1;rounded=0;shadow=0;sketch=0;" vertex="1" parent="1">
          <mxGeometry x="-161.25" y="505" width="292.5" height="60" as="geometry" />
        </mxCell>
        <mxCell id="ndDlktLv1oMTziJurYdK-47" value="否" style="text;html=1;align=center;verticalAlign=middle;resizable=0;points=[];autosize=1;strokeColor=none;fillColor=none;rounded=0;sketch=0;" vertex="1" parent="1">
          <mxGeometry x="150" y="385" width="40" height="30" as="geometry" />
        </mxCell>
        <mxCell id="ndDlktLv1oMTziJurYdK-48" value="是" style="text;html=1;align=center;verticalAlign=middle;resizable=0;points=[];autosize=1;strokeColor=none;fillColor=none;rounded=0;sketch=0;" vertex="1" parent="1">
          <mxGeometry x="-30" y="445" width="40" height="30" as="geometry" />
        </mxCell>
        <mxCell id="ndDlktLv1oMTziJurYdK-49" value="" style="edgeStyle=orthogonalEdgeStyle;rounded=0;orthogonalLoop=1;jettySize=auto;html=1;shadow=0;sketch=0;curved=1;" edge="1" parent="1" source="ndDlktLv1oMTziJurYdK-50" target="ndDlktLv1oMTziJurYdK-52">
          <mxGeometry relative="1" as="geometry" />
        </mxCell>
        <mxCell id="ndDlktLv1oMTziJurYdK-50" value="每个集合中加入当前元素,并把每个集合加入list中" style="whiteSpace=wrap;html=1;rounded=0;shadow=0;sketch=0;" vertex="1" parent="1">
          <mxGeometry x="-164" y="610" width="296.25" height="35" as="geometry" />
        </mxCell>
        <mxCell id="ndDlktLv1oMTziJurYdK-51" style="edgeStyle=orthogonalEdgeStyle;rounded=0;orthogonalLoop=1;jettySize=auto;html=1;exitX=0.5;exitY=1;exitDx=0;exitDy=0;entryX=1;entryY=0.5;entryDx=0;entryDy=0;shadow=0;sketch=0;curved=1;" edge="1" parent="1" source="ndDlktLv1oMTziJurYdK-52" target="ndDlktLv1oMTziJurYdK-44">
          <mxGeometry relative="1" as="geometry">
            <Array as="points">
              <mxPoint x="-15" y="738" />
              <mxPoint x="170" y="738" />
              <mxPoint x="170" y="410" />
            </Array>
          </mxGeometry>
        </mxCell>
        <mxCell id="ndDlktLv1oMTziJurYdK-52" value="去重遇到相同的元素跳过 i++" style="whiteSpace=wrap;html=1;rounded=0;shadow=0;sketch=0;" vertex="1" parent="1">
          <mxGeometry x="-154.25" y="678" width="278.5" height="40" as="geometry" />
        </mxCell>
        <mxCell id="ndDlktLv1oMTziJurYdK-53" value="结束" style="whiteSpace=wrap;html=1;shadow=0;rounded=0;sketch=0;" vertex="1" parent="1">
          <mxGeometry x="750" y="713" width="120" height="60" as="geometry" />
        </mxCell>
      </root>
    </mxGraphModel>
  </diagram>
</mxfile>
